<?xml version="1.0" standalone="no"?>
<!DOCTYPE svg PUBLIC "-//W3C//DTD SVG 20010904//EN"
 "http://www.w3.org/TR/2001/REC-SVG-20010904/DTD/svg10.dtd">
<svg version="1.0" xmlns="http://www.w3.org/2000/svg"
 width="175.000000pt" height="175.000000pt" viewBox="0 0 175.000000 175.000000"
 preserveAspectRatio="xMidYMid meet">
<metadata>
Created by potrace 1.13, written by Peter Selinger 2001-2015
</metadata>
<g transform="translate(0.000000,175.000000) scale(0.100000,-0.100000)"
fill="#000000" stroke="none">
<path d="M136 1579 l-26 -20 0 -569 0 -569 22 -21 c21 -19 34 -20 279 -20
l258 0 -11 -32 c-5 -18 -16 -58 -25 -88 -8 -30 -19 -59 -24 -65 -18 -19 -8
-42 26 -58 50 -24 433 -25 489 -2 20 8 36 20 36 26 0 15 -49 168 -61 191 -5
10 -9 20 -9 23 0 3 110 5 244 5 l243 0 27 26 26 27 0 557 0 558 -31 26 -31 26
-702 0 c-696 0 -704 0 -730 -21z m1389 -92 c13 -21 15 -81 13 -453 l-3 -429
-672 -3 -673 -2 0 437 c0 241 4 443 8 449 4 6 14 14 22 17 8 3 302 6 652 6
l638 1 15 -23z"/>
<path d="M1010 1317 c0 -7 6 -19 13 -26 15 -15 17 -198 2 -209 -5 -4 -19 -25
-30 -47 -11 -21 -31 -51 -45 -65 -31 -32 -113 -80 -136 -80 -10 0 -33 -5 -51
-12 -25 -9 -41 -9 -65 -1 -18 6 -48 14 -67 18 l-34 7 21 -30 c12 -16 42 -50
67 -74 141 -140 401 -81 492 110 23 49 25 63 21 145 -4 71 -10 102 -28 136
-28 53 -77 103 -121 125 -39 19 -39 19 -39 3z"/>
<path d="M740 1215 c-11 -33 -14 -35 -56 -35 -52 0 -55 -8 -14 -35 32 -21 37
-44 18 -75 -19 -30 -1 -36 34 -10 l32 23 39 -22 38 -22 -6 44 c-6 39 -4 45 19
61 37 24 32 36 -13 36 -36 0 -40 3 -51 35 -6 19 -15 35 -20 35 -5 0 -14 -16
-20 -35z"/>
</g>
</svg>
