<?xml version="1.0" standalone="no"?>
<!DOCTYPE svg PUBLIC "-//W3C//DTD SVG 20010904//EN"
 "http://www.w3.org/TR/2001/REC-SVG-20010904/DTD/svg10.dtd">
<svg version="1.0" xmlns="http://www.w3.org/2000/svg"
 width="656.000000pt" height="539.000000pt" viewBox="0 0 656.000000 539.000000"
 preserveAspectRatio="xMidYMid meet">
<metadata>
Created by potrace 1.13, written by Peter Selinger 2001-2015
</metadata>
<g transform="translate(0.000000,539.000000) scale(0.100000,-0.100000)"
fill="#000000" stroke="none">
<path d="M2638 4963 c-15 -4 -12 -12 18 -66 20 -34 69 -129 109 -212 l73 -150
51 3 c54 4 61 13 36 49 -14 19 -68 119 -113 208 -9 17 -18 32 -22 35 -3 3 -13
19 -21 35 -40 81 -61 105 -87 104 -15 -1 -35 -3 -44 -6z"/>
<path d="M2923 4963 c11 -19 77 -237 81 -266 2 -18 9 -43 14 -57 6 -14 13 -41
17 -62 l6 -36 72 -12 c239 -40 452 -198 554 -412 21 -43 41 -78 45 -78 5 0 41
9 80 20 374 103 767 -95 889 -450 16 -47 24 -96 27 -175 5 -132 -10 -201 -70
-322 l-41 -82 30 -38 c108 -138 159 -328 134 -493 -13 -79 -50 -182 -88 -243
l-24 -38 28 -72 c24 -64 27 -86 27 -202 1 -181 -32 -281 -136 -412 -126 -159
-311 -255 -533 -275 -18 -2 -31 -9 -33 -19 -3 -17 31 -73 73 -120 13 -15 40
-51 62 -81 21 -30 80 -103 132 -161 74 -85 96 -105 110 -98 33 18 222 204 298
294 146 171 224 290 328 502 116 234 191 482 226 745 17 124 17 459 0 580 -42
311 -135 596 -273 845 -118 213 -242 377 -415 547 -369 365 -837 595 -1353
664 -113 15 -274 19 -267 7z"/>
<path d="M1052 4110 c-15 -24 -31 -17 158 -69 80 -23 166 -47 192 -55 43 -13
47 -13 63 4 16 17 15 19 -2 28 -10 5 -34 13 -53 17 -19 4 -66 17 -105 30 -38
13 -99 29 -135 36 -36 6 -69 16 -74 20 -16 14 -30 10 -44 -11z"/>
<path d="M3981 3909 c-140 -32 -256 -61 -259 -63 -9 -10 32 -178 44 -183 8 -3
67 8 134 23 66 15 122 25 125 23 4 -5 -46 -183 -135 -474 l-39 -130 20 -85
c11 -47 21 -90 24 -97 3 -8 23 -6 77 7 40 9 136 32 213 50 252 58 297 69 301
73 3 2 -6 46 -18 96 l-22 92 -36 -6 c-19 -3 -93 -20 -163 -37 -71 -16 -130
-28 -133 -26 -3 4 56 209 157 539 l20 66 -22 97 c-12 53 -25 96 -28 95 -3 0
-120 -27 -260 -60z"/>
<path d="M5435 3835 c-77 -7 -146 -14 -152 -14 -14 -1 -19 -117 -5 -124 4 -2
45 -1 92 4 47 4 86 6 88 4 2 -1 -37 -92 -86 -201 -87 -193 -90 -201 -85 -256
6 -69 -14 -65 233 -43 91 8 167 15 170 15 3 0 3 28 0 62 -6 72 7 67 -142 54
-58 -4 -88 -4 -88 3 0 6 38 92 85 193 83 178 86 185 83 248 -4 78 10 74 -193
55z"/>
<path d="M752 3633 c-86 -178 -153 -379 -187 -556 -11 -58 -11 -68 1 -63 28
11 321 65 389 72 69 7 71 8 130 66 69 69 154 129 207 148 28 11 35 17 29 29
-28 54 -37 265 -15 347 4 16 0 23 -18 28 -26 7 -296 42 -403 51 l-71 7 -62
-129z"/>
<path d="M6084 3344 c-8 -20 -14 -38 -12 -39 2 -2 27 -14 57 -27 l55 -24 -115
-91 c-87 -70 -118 -100 -128 -128 -7 -20 -11 -38 -9 -39 6 -6 231 -96 238 -96
8 0 30 46 30 64 0 8 -26 24 -57 36 -32 13 -62 26 -66 30 -5 5 40 47 100 95 73
58 114 98 125 123 9 20 14 40 10 44 -4 4 -31 16 -59 27 -29 12 -76 30 -103 41
l-51 20 -15 -36z"/>
<path d="M2550 2895 c-76 -15 -207 -58 -265 -88 -75 -37 -160 -105 -262 -209
-115 -116 -157 -168 -231 -285 -89 -141 -242 -462 -242 -508 0 -23 106 -23
173 0 94 32 239 152 328 269 19 25 36 46 39 46 3 0 16 -44 29 -97 91 -384 257
-678 471 -834 121 -88 204 -106 321 -69 157 49 317 211 443 451 60 115 116
258 142 364 9 39 18 72 20 74 2 2 25 -18 51 -44 121 -120 228 -177 330 -177
35 0 67 3 71 6 10 11 -24 100 -104 266 -105 216 -202 369 -313 489 -23 25 -41
47 -41 50 0 20 -129 133 -197 174 -94 55 -256 111 -367 126 -103 15 -315 12
-396 -4z m-12 -592 c149 -97 80 -328 -98 -327 -101 0 -179 77 -180 176 -1 142
159 228 278 151z m684 11 c107 -55 132 -211 46 -291 -28 -27 -89 -53 -121 -53
-53 0 -118 32 -148 72 -66 93 -43 208 56 269 38 24 124 25 167 3z m-324 -856
c21 -21 13 -63 -18 -106 -25 -35 -36 -42 -64 -42 -26 0 -41 8 -65 35 -17 20
-31 42 -31 50 0 7 -3 20 -6 28 -3 8 2 22 11 31 20 20 154 23 173 4z"/>
<path d="M870 2834 c-25 -8 -88 -28 -140 -45 -52 -17 -104 -35 -115 -39 -11
-5 -38 -14 -59 -21 l-39 -12 6 -181 c4 -99 10 -202 13 -228 l6 -47 127 63 c69
35 183 87 252 116 l126 53 -29 46 c-39 62 -67 157 -70 241 -3 78 -4 79 -78 54z"/>
<path d="M1240 2301 c-8 -5 -37 -20 -65 -33 -126 -62 -232 -122 -256 -144 -14
-13 -30 -24 -36 -24 -6 0 -24 -10 -40 -23 -15 -12 -40 -29 -55 -36 -16 -8 -28
-18 -28 -22 0 -5 -6 -6 -14 -3 -8 3 -17 -2 -20 -13 -3 -10 -18 -24 -33 -31
-57 -26 -73 -37 -73 -50 0 -17 14 -9 170 93 124 82 270 168 424 251 45 24 72
43 61 43 -11 0 -27 -4 -35 -8z"/>
<path d="M1020 1751 c-58 -49 -136 -118 -174 -153 l-70 -65 33 -59 c18 -32 65
-108 105 -167 l71 -109 35 43 c19 24 86 101 148 171 l113 128 -41 51 c-44 56
-83 134 -95 189 -13 64 -15 63 -125 -29z"/>
<path d="M2630 885 c-73 -78 -222 -141 -358 -152 -90 -7 -217 15 -287 49 -25
12 -46 20 -48 17 -4 -4 -49 -146 -78 -247 l-18 -64 77 -35 c119 -55 354 -130
492 -157 165 -33 292 -46 446 -46 l126 0 -5 28 c-4 15 -16 127 -28 250 l-22
223 -63 29 c-34 17 -92 52 -129 80 -36 27 -70 50 -74 50 -4 0 -18 -11 -31 -25z"/>
<path d="M3674 820 l-40 -25 19 -45 c11 -25 25 -52 32 -60 7 -8 15 -27 19 -42
3 -16 11 -28 16 -28 6 0 10 -8 10 -18 0 -19 65 -148 79 -157 7 -4 78 19 88 29
2 1 -39 85 -90 187 l-92 185 -41 -26z"/>
<path d="M3388 712 c-66 -13 -77 -18 -83 -39 -4 -16 2 -34 19 -56 13 -18 27
-54 31 -82 4 -27 15 -65 24 -85 10 -19 24 -55 31 -80 7 -25 16 -48 20 -53 5
-6 165 35 176 46 2 2 -15 58 -40 123 -24 65 -53 147 -63 181 -10 35 -22 62
-28 61 -5 0 -45 -8 -87 -16z"/>
<path d="M3034 664 c6 -52 37 -194 66 -305 6 -20 10 -48 10 -63 0 -15 4 -25 9
-22 5 4 11 1 13 -5 4 -11 165 7 172 20 2 3 -3 31 -11 61 -15 59 -48 203 -64
284 -5 28 -14 53 -20 57 -6 3 -41 9 -77 12 -37 3 -76 9 -86 13 -18 7 -19 4
-12 -52z"/>
</g>
</svg>
